<?xml version="1.0" encoding="utf-8"?>
<!-- Generator: Adobe Illustrator 15.1.0, SVG Export Plug-In . SVG Version: 6.00 Build 0)  -->
<!DOCTYPE svg PUBLIC "-//W3C//DTD SVG 1.1//EN" "http://www.w3.org/Graphics/SVG/1.1/DTD/svg11.dtd">
<svg version="1.1" id="Capa_1" xmlns="http://www.w3.org/2000/svg" xmlns:xlink="http://www.w3.org/1999/xlink" x="0px" y="0px"
	 width="444.82px" height="444.82px" viewBox="0 0 444.82 444.82" enable-background="new 0 0 444.82 444.82" xml:space="preserve">
<g>
	<path fill="#FFFFFF" d="M433.968,278.658L248.387,92.79c-7.419-7.044-16.08-10.566-25.977-10.566
		c-10.088,0-18.652,3.521-25.697,10.566L10.848,278.658C3.615,285.886,0,294.548,0,304.636c0,10.281,3.619,18.844,10.848,25.693
		l21.411,21.414c6.854,7.229,15.42,10.852,25.697,10.852c10.278,0,18.842-3.621,25.697-10.852L222.41,213.271L361.167,351.74
		c6.848,7.229,15.414,10.852,25.701,10.852c10.082,0,18.746-3.623,25.975-10.852l21.408-21.412
		c7.043-7.043,10.568-15.607,10.568-25.693C444.82,294.544,441.205,285.884,433.968,278.658z"/>
</g>
</svg>
