<?xml version="1.0" encoding="utf-8"?>
<!-- Generator: Adobe Illustrator 18.1.1, SVG Export Plug-In . SVG Version: 6.00 Build 0)  -->
<svg version="1.1" id="Capa_1" xmlns="http://www.w3.org/2000/svg" xmlns:xlink="http://www.w3.org/1999/xlink" x="0px" y="0px"
	 viewBox="295 -2.5 1005 1005" enable-background="new 295 -2.5 1005 1005" xml:space="preserve">
<g>
	<g>
		<path fill="#FFFFFF" d="M1300,190c-36.8,16.3-76.3,27.4-117.8,32.3c42.4-25.4,74.8-65.6,90.2-113.4
			c-39.7,23.5-83.6,40.6-130.4,49.8c-37.4-39.9-90.7-64.8-149.7-64.8c-113.3,0-205.1,91.9-205.1,205.1c0,16.1,1.8,31.7,5.3,46.7
			c-170.5-8.6-321.6-90.2-422.8-214.3c-17.7,30.2-27.7,65.5-27.7,103.1c0,71.2,36.2,134,91.2,170.7c-33.6-1.1-65.2-10.4-92.9-25.7
			v2.6c0,99.4,70.7,182.3,164.5,201.2c-17.2,4.6-35.3,7.2-54.1,7.2c-13.2,0-26.1-1.3-38.6-3.8C438.2,668.1,514,727.4,603.7,729
			c-70.2,55-158.7,87.7-254.8,87.7c-16.6,0-32.9-1-48.9-2.8c90.8,58.3,198.6,92.3,314.4,92.3c377.4,0,583.6-312.6,583.6-583.6
			l-0.7-26.6C1237.7,267.2,1272.6,231.1,1300,190z"/>
	</g>
</g>
</svg>
